<?xml version="1.0" encoding="utf-8"?>
<!-- Generator: Adobe Illustrator 23.0.5, SVG Export Plug-In . SVG Version: 6.00 Build 0)  -->
<svg version="1.1" id="Layer_1" xmlns="http://www.w3.org/2000/svg" xmlns:xlink="http://www.w3.org/1999/xlink" x="0px" y="0px"
	 viewBox="0 0 50 50" style="enable-background:new 0 0 50 50;" xml:space="preserve">
<style type="text/css">
	.st0{fill-rule:evenodd;clip-rule:evenodd;fill:#F7941D;}
</style>
<path class="st0" d="M5.68,46.25c-3.95-2.72-2.13-4.19-0.45-4.4c5.88-0.47,4.27,2.78,8.66,0.21c1.62-1,3.17-1.89,5.37-1.89
	c0.19,0,0.45,0,0.71,0.05c0.65,0.05,1.29,0.16,1.94,0.26c0.52,0.1,1.1,0.16,1.61,0.21c0.2,0.05,0.33,0.05,0.45,0.05
	c0.13,0.05,0.26,0.05,0.32,0.05c1.42,0.05,0.19-2.99,0.19-2.99c-0.9-2.15-1.81-4.35-3.75-5.92c-3.36-2.1-3.04-0.84-6.14-1.31
	c-1.68-0.21-3.1-0.68-4.59-1.41c-0.26-0.16-1.42-0.68-1.36-1c0.13-0.42,0.84-1,1.42-1.36c3.17-1.73,8.02-0.47,9.37,2.36l0,0
	l0.06,0.1l0,0l0.65,1.36l0,0c1.61,1.2,2.91,2.73,3.94,4.4c-0.32-1.36-0.84-2.67-1.29-3.93c-0.52-1.62-1.16-3.25-1.55-4.98
	c-0.97-5.71-5.82-8.02-7.95-7.6c-1.68-0.37-3.04-1-4.33-1.84c-0.26-0.16-1.29-0.84-1.23-1.1c0.2-0.47,0.97-0.94,1.62-1.26
	c3.1-1.26,7.11,0.05,8.6,2.46l0,0l0,0c0.2,0.31,0.33,0.63,0.39,0.94l1.04,2.31l0,0c0.45,0.58,0.97,1.26,1.36,2.04
	c-0.13-2.46-0.06-5.55,1.04-8.54c0.26-0.89,0.58-1.68,0.97-2.36l0,0v0.05c-0.06-0.21-0.06-0.42-0.06-0.68l0,0l0,0
	c-0.39-4.14,3.42-8.44,8.53-7.91c1.04,0.1,2.39,0.42,2.84,0.94c0.26,0.31-0.64,1.62-0.9,1.94c-1.17,1.62-2.59,2.99-4.53,4.09
	c-1.29,0.68-2.78,1.1-4.33,1.36c0,0,0,0,0,0.05c-0.32,1.05-0.58,1.94-0.78,2.83c-0.65,2.88-0.71,6.19-0.06,9.75
	c0.26-1.31,1.55-2.67,2.65-3.72l0,0l0.78-1.83c0-0.1,0.06-0.21,0.06-0.31l0,0l0,0c1.23-2.73,5.56-4.3,8.86-2.94
	c0.65,0.31,1.42,0.79,1.62,1.26c0.06,0.26-0.97,0.94-1.23,1.1c-1.29,0.89-2.65,1.52-4.33,1.84c-3.36,1-6.08,1.42-7.44,4.19
	c-1.36,2.15-0.32,4.82,0.65,7.44c0.26,0.84,0.58,1.62,0.78,2.36c0.45-1,1.23-2.1,2.26-3.2c0.26-0.84,0.52-1.52,0.78-2.04
	c0.13-0.42,0.32-0.84,0.58-1.21l0.06-0.05l0,0c1.62-2.2,5.43-3.3,8.34-2.04c0.65,0.26,1.43,0.79,1.55,1.21
	c0.13,0.31-0.91,0.94-1.16,1.15c-1.36,0.84-2.72,1.47-4.33,1.78c-4.33,1.15-4.4-0.1-7.3,4.61c-0.71,1.26-0.13,2.67,0.52,4.09
	c0.2,0.42,0.33,0.84,0.45,1.26l0.06,0.11c0.32,0.84,0.64,1.73,0.71,2.67c0,0.05,0,0.21,0.52,0.21c0.71,0,1.88-0.37,2.65-0.58
	c0.32-0.1,0.58-0.16,0.71-0.21c1.55-0.32,3.04-0.21,4.2,0.26c0.71,0.32,1.03,0.79,1.36,1.31c0.26,0.42,0.52,0.84,1.03,1.05
	c0.32,0.16,0.78,0.16,1.23,0.16c0.52,0.05,1.94-1.52,7.18-0.95c1.42,0.79-0.91,2.94-3.1,3.83H5.68V46.25z"/>
</svg>
