<?xml version="1.0" encoding="utf-8"?>
<!-- Generator: Adobe Illustrator 23.0.5, SVG Export Plug-In . SVG Version: 6.00 Build 0)  -->
<svg version="1.1" id="Layer_1" xmlns="http://www.w3.org/2000/svg" xmlns:xlink="http://www.w3.org/1999/xlink" x="0px" y="0px"
	 viewBox="0 0 50 50" style="enable-background:new 0 0 50 50;" xml:space="preserve">
<style type="text/css">
	.st0{fill:#F7941D;}
</style>
<g id="XMLID_3479_">
	<path id="XMLID_3490_" class="st0" d="M9.47,24.94c0,1.34,0.13,2.51,0.78,4.23c1.16,3,3.99,7.1,4.98,8.49
		c-0.42,0.38-0.66,0.83-0.66,1.29c-0.01,0.58,0.34,1.13,0.94,1.56c-0.58,0.41-0.93,0.94-0.94,1.51c-0.01,0.66,0.43,1.26,1.16,1.71
		c-0.53,0.4-0.83,0.9-0.84,1.44c-0.02,1.33,1.81,2.43,4.07,2.44l14.72,0.12c0.02,0,0.04,0,0.06,0c1.12,0,2.21-0.27,2.98-0.75
		c0.71-0.44,1.11-1.02,1.12-1.63c0.01-0.66-0.43-1.26-1.16-1.71c0.53-0.4,0.83-0.9,0.84-1.45c0.01-0.58-0.33-1.13-0.93-1.56
		c0.58-0.42,0.93-0.94,0.93-1.51c0.01-0.59-0.34-1.13-0.92-1.55c1.03-1.46,3.79-5.47,4.93-8.42c0.65-1.72,0.78-2.89,0.78-4.23
		c0-5.75-7.37-10.42-16.42-10.42C16.83,14.52,9.47,19.19,9.47,24.94z M34.98,45.85c-0.32,0.2-0.77,0.32-1.27,0.3L19,46.03
		c-0.9-0.01-1.63-0.39-1.62-0.85c0.01-0.35,0.45-0.67,1.11-0.78c0.57-0.1,0.95-0.43,0.92-0.8c-0.03-0.37-0.46-0.68-1.04-0.74
		c-0.76-0.08-1.32-0.44-1.32-0.83c0.01-0.34,0.42-0.64,1.04-0.77c0.52-0.1,0.87-0.41,0.87-0.75c0-0.34-0.35-0.65-0.86-0.75
		c-0.63-0.13-1.06-0.45-1.05-0.79c0-0.15,0.08-0.27,0.19-0.37h17.43c0.23,0.15,0.37,0.33,0.37,0.53c0,0.34-0.42,0.64-1.04,0.76
		c-0.52,0.1-0.87,0.4-0.88,0.75c0,0.34,0.35,0.65,0.86,0.76c0.64,0.13,1.06,0.45,1.05,0.79c0,0.35-0.45,0.67-1.11,0.78
		c-0.57,0.1-0.95,0.43-0.92,0.8c0.03,0.37,0.46,0.68,1.04,0.74c0.76,0.08,1.32,0.44,1.32,0.83C35.35,45.58,35.15,45.75,34.98,45.85z
		 M25.89,16.09c7.68,0,13.94,3.97,13.94,8.84c0,1.22-0.12,2.29-0.71,3.85c-1.1,2.84-3.89,6.88-4.84,8.23H17.51
		c-0.96-1.35-3.74-5.38-4.84-8.22c-0.59-1.56-0.71-2.64-0.71-3.86C11.95,20.06,18.2,16.09,25.89,16.09z"/>
	<path id="XMLID_3487_" class="st0" d="M8.69,6.77C8.45,6.57,8.1,6.45,7.72,6.42C7.34,6.39,6.96,6.46,6.65,6.61
		c-0.3,0.15-0.5,0.37-0.54,0.62C6.06,7.47,6.17,7.71,6.41,7.9l7.41,5.97c0.28,0.22,0.7,0.35,1.14,0.35c0.02,0,0.03,0,0.05,0h0
		c0.31-0.01,0.6-0.08,0.84-0.2c0.3-0.15,0.5-0.37,0.54-0.61c0.05-0.24-0.06-0.48-0.3-0.68L8.69,6.77z M15.09,13.41
		c-0.04,0.02-0.08,0.03-0.12,0.03c-0.06,0.01-0.13-0.02-0.17-0.05L7.39,7.42c-0.04-0.04-0.05-0.07-0.04-0.1
		c0-0.02,0.02-0.06,0.08-0.09C7.46,7.21,7.51,7.2,7.55,7.2c0.01,0,0.02,0,0.03,0c0.03,0,0.09,0.01,0.14,0.05l7.41,5.97
		c0.04,0.04,0.05,0.07,0.04,0.1C15.16,13.34,15.15,13.38,15.09,13.41z"/>
	<path id="XMLID_3484_" class="st0" d="M35.54,14L35.54,14c0.24,0.1,0.52,0.15,0.8,0.15c0.02,0,0.03,0,0.05,0
		c0.47-0.01,0.9-0.16,1.16-0.41l6.11-5.83c0.22-0.2,0.29-0.45,0.21-0.69c-0.08-0.24-0.3-0.45-0.62-0.58
		c-0.32-0.14-0.71-0.19-1.09-0.14c-0.38,0.05-0.71,0.19-0.92,0.39l-6.11,5.83c-0.21,0.2-0.29,0.45-0.21,0.69
		C35,13.66,35.21,13.87,35.54,14z M36.17,13.16l6.11-5.83c0.04-0.04,0.1-0.05,0.13-0.06c0.03,0,0.09-0.01,0.15,0.02
		c0.06,0.03,0.08,0.06,0.09,0.08c0.01,0.02,0.01,0.06-0.03,0.1l-6.11,5.83c-0.05,0.05-0.13,0.06-0.17,0.06
		c-0.04,0-0.08-0.01-0.12-0.02c-0.06-0.03-0.08-0.06-0.09-0.08C36.13,13.24,36.13,13.2,36.17,13.16z"/>
	<path id="XMLID_3481_" class="st0" d="M25.59,12.64c0.02,0,0.04,0,0.06,0c0.02,0,0.04,0,0.05,0c0.75-0.02,1.37-0.4,1.4-0.88
		l0.51-7.75c0.02-0.25-0.12-0.48-0.38-0.66c-0.26-0.18-0.62-0.29-1-0.3c-0.39-0.01-0.76,0.07-1.04,0.24
		c-0.29,0.17-0.45,0.39-0.47,0.64l-0.51,7.75c-0.02,0.24,0.12,0.48,0.38,0.66C24.84,12.53,25.2,12.63,25.59,12.64L25.59,12.64z
		 M25.44,11.72l0.51-7.75c0-0.05,0.04-0.08,0.07-0.09c0.03-0.02,0.08-0.03,0.15-0.03c0.07,0,0.12,0.02,0.14,0.04
		c0.02,0.02,0.06,0.05,0.05,0.09l-0.51,7.75c0,0.07-0.09,0.12-0.21,0.13h-0.01c-0.07,0-0.12-0.02-0.14-0.04
		C25.48,11.8,25.44,11.76,25.44,11.72z"/>
	<path id="XMLID_3480_" class="st0" d="M17.09,23.46L17.09,23.46c0.74,0.03,1.4-0.33,1.45-0.81c0.02-0.23,0.08-0.45,0.16-0.66
		c0.57-1.43,2.39-1.99,3.82-2.21c0.67-0.1,1.16-0.11,1.21-0.11c0.75-0.01,1.35-0.41,1.33-0.88c-0.02-0.47-0.63-0.85-1.39-0.85
		c-2.56,0.03-7.49,1.04-7.86,4.6C15.77,23.02,16.34,23.43,17.09,23.46z"/>
</g>
</svg>
