<?xml version="1.0" encoding="utf-8"?>
<!-- Generator: Adobe Illustrator 23.0.5, SVG Export Plug-In . SVG Version: 6.00 Build 0)  -->
<svg version="1.1" id="Layer_1" xmlns="http://www.w3.org/2000/svg" xmlns:xlink="http://www.w3.org/1999/xlink" x="0px" y="0px"
	 viewBox="0 0 50 50" style="enable-background:new 0 0 50 50;" xml:space="preserve">
<style type="text/css">
	.st0{fill:#F7941D;}
</style>
<g>
	<g>
		<path class="st0" d="M47.14,21.99L40,12.94V7.04c0-0.9-0.58-1.63-1.29-1.63c-0.71,0-1.29,0.73-1.29,1.63v2.65l-4.72-5.97
			c-0.5-0.64-1.32-0.64-1.82,0l-5.66,7.17l-2.26-2.86c-0.5-0.64-1.32-0.64-1.82,0L3.86,29.94c-0.5,0.64-0.5,1.67,0,2.3
			c0.5,0.64,1.32,0.64,1.82,0l16.4-20.77l16.39,20.77c0.25,0.32,0.58,0.48,0.91,0.48c0.33,0,0.66-0.16,0.91-0.48
			c0.5-0.64,0.5-1.67,0-2.3l-8.64-10.94v-7.22c0-0.9-0.58-1.63-1.29-1.63c-0.71,0-1.29,0.73-1.29,1.63v3.96l-2.02-2.56l4.75-6.01
			l13.52,17.12c0.25,0.32,0.58,0.48,0.91,0.48c0.33,0,0.66-0.16,0.91-0.48C47.65,23.65,47.65,22.62,47.14,21.99z"/>
		<path class="st0" d="M36.61,31.81L22.99,14.54c-0.24-0.31-0.57-0.48-0.91-0.48c-0.34,0-0.67,0.17-0.91,0.48L7.54,31.81
			c-0.18,0.23-0.3,0.52-0.35,0.84c-0.04,0.25-0.06,0.5-0.06,0.75v8.43c0,2.17,1.39,3.94,3.11,3.94h6.65c0.86,0,1.69-0.46,2.28-1.26
			c0.53-0.73,0.83-1.68,0.83-2.67v-6.19c0-1.5,0.91-2.76,2.08-2.9c1.17,0.14,2.08,1.4,2.08,2.9v6.19c0,0.99,0.29,1.94,0.83,2.67
			c0.59,0.8,1.42,1.26,2.28,1.26h6.65c1.71,0,3.11-1.77,3.11-3.94V33.4c0-0.25-0.02-0.5-0.06-0.75
			C36.92,32.33,36.79,32.04,36.61,31.81z"/>
	</g>
</g>
</svg>
