<?xml version="1.0" encoding="utf-8"?>
<!-- Generator: Adobe Illustrator 23.0.5, SVG Export Plug-In . SVG Version: 6.00 Build 0)  -->
<svg version="1.1" id="Layer_1" xmlns="http://www.w3.org/2000/svg" xmlns:xlink="http://www.w3.org/1999/xlink" x="0px" y="0px"
	 viewBox="0 0 50 50" style="enable-background:new 0 0 50 50;" xml:space="preserve">
<style type="text/css">
	.st0{fill:#F7941D;}
</style>
<g id="XMLID_4300_">
	<path id="XMLID_4301_" class="st0" d="M40.44,9.43c-4.22-4.41-9.87-6.83-15.92-6.83c-5.79,0-11.26,2.25-15.43,6.33c0,0,0,0,0,0
		c-4.34,4.26-6.73,9.96-6.73,16.05c0,6.09,2.39,11.79,6.73,16.05c0,0,0,0,0,0c4.16,4.08,9.64,6.33,15.43,6.33
		c6.05,0,11.7-2.43,15.92-6.84c4.02-4.2,6.24-9.72,6.24-15.55C46.68,19.15,44.46,13.63,40.44,9.43C40.44,9.43,40.44,9.43,40.44,9.43
		z M9.78,11.07c3.29,3.55,5.19,8.07,5.42,12.91H4.36C4.59,19.14,6.49,14.62,9.78,11.07z M4.36,25.97h10.83
		c-0.23,4.84-2.13,9.36-5.42,12.91C6.49,35.33,4.59,30.81,4.36,25.97z M23.53,45.33c-4.57-0.22-8.89-1.99-12.33-5.06
		c0.01-0.01,0.02-0.02,0.03-0.04c0.09-0.1,0.17-0.19,0.26-0.29c0.16-0.18,0.32-0.35,0.47-0.53c0.1-0.11,0.18-0.23,0.28-0.34
		c0.14-0.17,0.27-0.34,0.4-0.51c0.09-0.12,0.18-0.25,0.27-0.37c0.12-0.17,0.25-0.33,0.36-0.51c0.09-0.13,0.18-0.26,0.26-0.4
		c0.11-0.17,0.22-0.34,0.33-0.51c0.08-0.14,0.17-0.27,0.25-0.41c0.1-0.17,0.2-0.34,0.3-0.52c0.08-0.14,0.15-0.28,0.23-0.43
		c0.09-0.18,0.18-0.35,0.27-0.53c0.07-0.14,0.14-0.29,0.21-0.44c0.08-0.18,0.17-0.36,0.24-0.54c0.06-0.15,0.13-0.3,0.19-0.44
		c0.08-0.19,0.15-0.37,0.22-0.56c0.06-0.15,0.11-0.3,0.16-0.45c0.07-0.19,0.13-0.38,0.19-0.57c0.05-0.15,0.1-0.3,0.14-0.45
		c0.06-0.2,0.11-0.39,0.17-0.59c0.04-0.15,0.08-0.3,0.12-0.45c0.05-0.2,0.09-0.41,0.14-0.61c0.03-0.15,0.07-0.3,0.09-0.45
		c0.04-0.21,0.08-0.43,0.11-0.64c0.02-0.14,0.05-0.29,0.07-0.43c0.03-0.23,0.06-0.46,0.09-0.69c0.01-0.13,0.03-0.26,0.05-0.39
		c0.03-0.26,0.04-0.53,0.06-0.79c0.01-0.1,0.02-0.2,0.02-0.3c0-0.04,0-0.08,0-0.11h6.36V45.33z M23.53,23.98h-6.36
		c0-0.04,0-0.07,0-0.11c0-0.1-0.01-0.2-0.02-0.3c-0.02-0.26-0.03-0.53-0.06-0.79c-0.01-0.13-0.03-0.26-0.05-0.39
		c-0.03-0.23-0.05-0.46-0.09-0.69c-0.02-0.14-0.05-0.29-0.07-0.43c-0.04-0.21-0.07-0.43-0.11-0.64c-0.03-0.15-0.06-0.3-0.09-0.45
		c-0.04-0.2-0.09-0.41-0.14-0.61c-0.04-0.15-0.08-0.3-0.12-0.45c-0.05-0.2-0.11-0.39-0.17-0.59c-0.04-0.15-0.09-0.3-0.14-0.45
		c-0.06-0.19-0.12-0.38-0.19-0.57c-0.05-0.15-0.11-0.3-0.16-0.45c-0.07-0.19-0.14-0.37-0.22-0.56c-0.06-0.15-0.12-0.3-0.19-0.44
		c-0.08-0.18-0.16-0.36-0.24-0.54c-0.07-0.15-0.14-0.29-0.21-0.43c-0.09-0.18-0.18-0.36-0.27-0.53c-0.07-0.14-0.15-0.28-0.23-0.42
		c-0.1-0.18-0.2-0.35-0.3-0.52c-0.08-0.14-0.16-0.27-0.25-0.41c-0.11-0.17-0.22-0.34-0.33-0.51c-0.09-0.13-0.17-0.26-0.26-0.39
		c-0.12-0.17-0.24-0.34-0.36-0.51c-0.09-0.12-0.18-0.25-0.27-0.37c-0.13-0.17-0.27-0.34-0.41-0.51c-0.09-0.11-0.18-0.23-0.27-0.34
		c-0.15-0.18-0.31-0.36-0.47-0.54c-0.09-0.1-0.17-0.19-0.26-0.29c-0.01-0.01-0.02-0.02-0.03-0.04c3.44-3.07,7.76-4.84,12.33-5.06
		V23.98z M25.51,4.61c4.82,0.23,9.32,2.17,12.85,5.54c-0.01,0.01-0.02,0.03-0.04,0.04c-0.09,0.1-0.17,0.2-0.25,0.3
		c-0.14,0.17-0.28,0.33-0.42,0.5c-0.09,0.11-0.18,0.23-0.26,0.35c-0.12,0.16-0.25,0.32-0.37,0.49c-0.09,0.12-0.17,0.25-0.26,0.37
		c-0.11,0.16-0.22,0.33-0.33,0.49c-0.08,0.13-0.16,0.26-0.25,0.39c-0.1,0.16-0.2,0.33-0.3,0.5c-0.08,0.13-0.15,0.27-0.23,0.4
		c-0.09,0.17-0.19,0.33-0.28,0.5c-0.07,0.14-0.14,0.28-0.21,0.42c-0.08,0.17-0.17,0.34-0.25,0.51c-0.07,0.14-0.13,0.29-0.2,0.43
		c-0.08,0.17-0.15,0.35-0.22,0.52c-0.06,0.14-0.12,0.29-0.18,0.44c-0.07,0.18-0.13,0.35-0.2,0.53c-0.05,0.15-0.11,0.29-0.16,0.44
		c-0.06,0.18-0.12,0.36-0.17,0.54c-0.05,0.15-0.09,0.3-0.13,0.45c-0.05,0.18-0.1,0.37-0.15,0.56c-0.04,0.15-0.08,0.3-0.11,0.45
		c-0.04,0.19-0.08,0.38-0.12,0.57c-0.03,0.15-0.06,0.3-0.09,0.45c-0.04,0.2-0.07,0.4-0.1,0.59c-0.02,0.14-0.05,0.29-0.07,0.43
		c-0.03,0.21-0.05,0.42-0.08,0.63c-0.02,0.14-0.03,0.27-0.05,0.41c-0.02,0.23-0.04,0.47-0.05,0.7c-0.01,0.12-0.02,0.23-0.02,0.35
		c0,0.02,0,0.04,0,0.06h-7.3V4.61z M25.51,45.34V25.97h7.3c0,0.02,0,0.04,0,0.06c0.01,0.12,0.02,0.23,0.02,0.35
		c0.01,0.23,0.03,0.47,0.05,0.7c0.01,0.14,0.03,0.27,0.05,0.41c0.02,0.21,0.05,0.42,0.08,0.63c0.02,0.15,0.05,0.29,0.07,0.43
		c0.03,0.2,0.06,0.4,0.1,0.6c0.03,0.15,0.06,0.3,0.09,0.45c0.04,0.19,0.08,0.38,0.13,0.57c0.04,0.15,0.07,0.3,0.11,0.45
		c0.05,0.19,0.1,0.37,0.15,0.56c0.04,0.15,0.09,0.3,0.13,0.45c0.06,0.18,0.11,0.36,0.17,0.55c0.05,0.15,0.1,0.29,0.15,0.44
		c0.06,0.18,0.13,0.36,0.2,0.54c0.06,0.15,0.11,0.29,0.17,0.43c0.07,0.18,0.15,0.35,0.22,0.52c0.06,0.14,0.13,0.28,0.19,0.43
		c0.08,0.17,0.17,0.34,0.25,0.51c0.07,0.14,0.14,0.28,0.21,0.41c0.09,0.17,0.18,0.34,0.28,0.51c0.08,0.13,0.15,0.27,0.23,0.4
		c0.1,0.17,0.2,0.33,0.31,0.5c0.08,0.13,0.16,0.26,0.24,0.39c0.11,0.17,0.22,0.33,0.33,0.49c0.08,0.12,0.17,0.25,0.26,0.37
		c0.12,0.17,0.24,0.33,0.37,0.49c0.09,0.12,0.17,0.23,0.26,0.35c0.14,0.17,0.28,0.34,0.42,0.5c0.09,0.1,0.17,0.21,0.26,0.31
		c0.01,0.01,0.02,0.03,0.03,0.04C34.83,43.16,30.33,45.1,25.51,45.34z M39.73,38.35c-3-3.47-4.72-7.8-4.94-12.38h9.89
		C44.45,30.55,42.72,34.88,39.73,38.35z M34.78,23.98c0.22-4.58,1.95-8.91,4.94-12.38c3,3.47,4.72,7.8,4.94,12.38H34.78z"/>
</g>
</svg>
