<?xml version="1.0" encoding="utf-8"?>
<!-- Generator: Adobe Illustrator 23.0.5, SVG Export Plug-In . SVG Version: 6.00 Build 0)  -->
<svg version="1.1" id="Layer_1" xmlns="http://www.w3.org/2000/svg" xmlns:xlink="http://www.w3.org/1999/xlink" x="0px" y="0px"
	 viewBox="0 0 50 50" style="enable-background:new 0 0 50 50;" xml:space="preserve">
<style type="text/css">
	.st0{fill:#F89521;}
</style>
<g id="XMLID_4419_">
	<path id="XMLID_4420_" class="st0" d="M8.39,25.76c-0.85,0.22-1.45,1.28-1.45,2.5c0,0.56,0.15,1.11,0.4,1.56l-0.8,6.33
		c-0.05,0.28,0,0.56,0.15,0.78c0.15,0.22,0.3,0.33,0.5,0.33h3.2c0.2,0,0.4-0.11,0.5-0.33c0.15-0.22,0.2-0.5,0.15-0.72l-0.65-6.61
		c0.15-0.39,0.25-0.83,0.25-1.28c0-0.94-0.35-1.72-0.9-2.17v-3.44l4.2,2.5v14.27c0,1.78,1.05,3.17,2.3,3.17h19.09
		c1.3,0,2.3-1.44,2.3-3.17V24.26l9.95-5.94c0.25-0.17,0.4-0.5,0.4-0.89c0-0.39-0.2-0.72-0.45-0.83L24.83,5.94
		c-0.15-0.06-0.3-0.06-0.45,0C16.63,9.99,3.89,16.43,2.69,16.49c-0.3,0-0.6,0.33-0.65,0.72c-0.05,0.44,0.1,0.89,0.4,1.06l5.9,3.5v4
		H8.39z M7.99,35.32l0.7-5.66c0.05-0.33-0.05-0.67-0.25-0.89c-0.1-0.11-0.2-0.33-0.2-0.56c0-0.39,0.25-0.67,0.5-0.67
		c0.3,0,0.5,0.33,0.5,0.67c0,0.22-0.05,0.39-0.15,0.44c-0.15,0.22-0.2,0.5-0.15,0.72l0.6,5.89H7.99V35.32z M36.32,39.43
		c0,0.72-0.45,1.33-0.95,1.33H16.28c-0.55,0-0.95-0.61-0.95-1.33v-13.5l9.5,5.66c0.1,0.06,0.2,0.06,0.25,0.06c0.1,0,0.2,0,0.25-0.06
		l10.99-6.55C36.32,25.04,36.32,39.43,36.32,39.43z M4.84,17.71c4.9-2.11,16.69-8.16,19.89-9.89l20.79,9.77L25.08,29.76l-13.49-8.05
		l11.39-2.05c0.5,0.44,1.25,0.67,2.1,0.67c1.55,0,2.75-0.83,2.75-2c0-1.17-1.2-2-2.75-2c-1.35,0-2.4,0.67-2.7,1.56L9.19,20.27
		L4.84,17.71z M22.98,18.32c0-0.44,0.8-1.06,2.1-1.06c1.25,0,2.1,0.61,2.1,1.06s-0.8,1.06-2.1,1.06S22.98,18.77,22.98,18.32z"/>
</g>
</svg>
